<svg
  xmlns="http://www.w3.org/2000/svg"
  viewBox="0 0 24 24"
  width="24"
  height="24"
  fill="none"     
>
  <path fill-rule="evenodd" clip-rule="evenodd" d="M22.3667 1.63418C21.8487 1.11609 21.2337 0.705108 20.5568 0.424713C19.8799 0.144319 19.1544 0 18.4218 0C17.6891 0 16.9636 0.144319 16.2867 0.424713C15.6098 0.705108 14.9948 1.11609 14.4768 1.63418L1.65771 14.4543C1.13457 14.9711 0.718797 15.5862 0.434306 16.2643C0.149816 16.9424 0.00222476 17.6701 2.49589e-05 18.4054C-0.00217485 19.1408 0.14106 19.8693 0.421488 20.5491C0.701917 21.2289 1.114 21.8465 1.63404 22.3664C2.15408 22.8864 2.7718 23.2984 3.45167 23.5787C4.13155 23.8591 4.86014 24.0022 5.59555 24C6.33096 23.9977 7.05866 23.8501 7.7368 23.5655C8.41493 23.281 9.0301 22.8652 9.54693 22.3421L22.366 9.5241C22.8841 9.00614 23.295 8.39122 23.5753 7.71447C23.8557 7.03771 24 6.31236 24 5.57983C24 4.84731 23.8557 4.12196 23.5753 3.4452C23.295 2.76844 22.8841 2.15353 22.366 1.63557M13.9831 7.05867C13.7216 6.79725 13.3669 6.65039 12.9972 6.65039C12.6274 6.65039 12.2727 6.79725 12.0112 7.05867L7.08129 11.9881C6.81984 12.2496 6.67297 12.6043 6.67297 12.974C6.67297 13.3438 6.81984 13.6984 7.08129 13.9599L10.0399 16.9183C10.3014 17.1797 10.6561 17.3266 11.0259 17.3266C11.3957 17.3266 11.7503 17.1797 12.0119 16.9183L16.9418 11.9881C17.0713 11.8586 17.1741 11.7049 17.2442 11.5357C17.3143 11.3664 17.3504 11.1851 17.3504 11.0019C17.3504 10.8187 17.3143 10.6373 17.2442 10.4681C17.1741 10.2989 17.0713 10.1451 16.9418 10.0156L13.9831 7.05867ZM12.9972 8.04526L15.9558 11.0029L11.0252 15.9331L8.06657 12.9754L12.9972 8.04526ZM18.3712 6.496C18.3069 6.56259 18.23 6.61571 18.1449 6.65225C18.0598 6.68879 17.9683 6.70803 17.8757 6.70883C17.7831 6.70964 17.6913 6.692 17.6056 6.65694C17.5199 6.62188 17.4421 6.57011 17.3766 6.50464C17.3111 6.43918 17.2593 6.36133 17.2243 6.27564C17.1892 6.18996 17.1716 6.09814 17.1724 6.00557C17.1732 5.91299 17.1924 5.8215 17.229 5.73643C17.2655 5.65136 17.3186 5.57443 17.3852 5.51011C17.5168 5.3831 17.6929 5.31283 17.8757 5.31441C18.0585 5.316 18.2334 5.38933 18.3627 5.5186C18.492 5.64788 18.5653 5.82275 18.5669 6.00557C18.5685 6.18838 18.4982 6.3645 18.3712 6.496ZM18.0825 3.70706C18.1469 3.77365 18.2238 3.82677 18.3089 3.86331C18.3939 3.89985 18.4854 3.91909 18.578 3.91989C18.6706 3.92069 18.7624 3.90305 18.8481 3.868C18.9338 3.83294 19.0117 3.78117 19.0772 3.7157C19.1426 3.65023 19.1944 3.57239 19.2295 3.4867C19.2645 3.40101 19.2822 3.3092 19.2814 3.21662C19.2806 3.12404 19.2613 3.03255 19.2248 2.94749C19.1882 2.86242 19.1351 2.78548 19.0685 2.72117C18.937 2.59416 18.7609 2.52388 18.578 2.52547C18.3952 2.52706 18.2203 2.60039 18.091 2.72966C17.9617 2.85893 17.8884 3.03381 17.8868 3.21662C17.8852 3.39943 17.9555 3.57556 18.0825 3.70706ZM16.2793 4.40429C16.215 4.47089 16.1381 4.524 16.053 4.56055C15.9679 4.59709 15.8764 4.61632 15.7838 4.61713C15.6912 4.61793 15.5994 4.60029 15.5137 4.56523C15.428 4.53017 15.3502 4.4784 15.2847 4.41294C15.2192 4.34747 15.1675 4.26962 15.1324 4.18394C15.0973 4.09825 15.0797 4.00644 15.0805 3.91386C15.0813 3.82128 15.1005 3.72979 15.1371 3.64472C15.1736 3.55966 15.2268 3.48272 15.2933 3.4184C15.4249 3.29139 15.601 3.22112 15.7838 3.22271C15.9667 3.22429 16.1415 3.29762 16.2708 3.4269C16.4001 3.55617 16.4735 3.73104 16.475 3.91386C16.4766 4.09667 16.4063 4.27279 16.2793 4.40429ZM19.4771 8.58771C19.5415 8.6543 19.6184 8.70742 19.7035 8.74396C19.7885 8.7805 19.88 8.79974 19.9726 8.80054C20.0652 8.80135 20.157 8.7837 20.2427 8.74865C20.3284 8.71359 20.4063 8.66182 20.4718 8.59635C20.5372 8.53089 20.589 8.45304 20.6241 8.36735C20.6591 8.28166 20.6768 8.18985 20.676 8.09727C20.6752 8.00469 20.6559 7.9132 20.6194 7.82814C20.5828 7.74307 20.5297 7.66614 20.4631 7.60182C20.3316 7.47481 20.1555 7.40453 19.9726 7.40612C19.7898 7.40771 19.6149 7.48104 19.4856 7.61031C19.3563 7.73958 19.283 7.91446 19.2814 8.09727C19.2798 8.28009 19.3501 8.45621 19.4771 8.58771ZM21.1604 5.79877C21.0961 5.86536 21.0191 5.91848 20.9341 5.95502C20.849 5.99156 20.7575 6.01079 20.6649 6.0116C20.5723 6.0124 20.4805 5.99476 20.3948 5.9597C20.3091 5.92465 20.2313 5.87287 20.1658 5.80741C20.1003 5.74194 20.0485 5.6641 20.0135 5.57841C19.9784 5.49272 19.9608 5.40091 19.9616 5.30833C19.9624 5.21575 19.9816 5.12426 20.0182 5.03919C20.0547 4.95413 20.1078 4.87719 20.1744 4.81287C20.3059 4.68587 20.4821 4.61559 20.6649 4.61718C20.8477 4.61877 21.0226 4.69209 21.1519 4.82137C21.2812 4.95064 21.3545 5.12552 21.3561 5.30833C21.3577 5.49114 21.2874 5.66727 21.1604 5.79877ZM6.51717 17.3631C6.45285 17.2965 6.37591 17.2434 6.29083 17.2069C6.20576 17.1703 6.11426 17.1511 6.02167 17.1503C5.92909 17.1495 5.83727 17.1671 5.75157 17.2022C5.66588 17.2372 5.58802 17.289 5.52255 17.3545C5.45708 17.4199 5.4053 17.4978 5.37024 17.5835C5.33518 17.6692 5.31754 17.761 5.31834 17.8536C5.31915 17.9461 5.33839 18.0376 5.37493 18.1227C5.41147 18.2078 5.4646 18.2847 5.5312 18.349C5.66271 18.476 5.83885 18.5463 6.02167 18.5447C6.2045 18.5431 6.37939 18.4698 6.50868 18.3405C6.63796 18.2112 6.7113 18.0364 6.71289 17.8536C6.71448 17.6707 6.64419 17.4946 6.51717 17.3631ZM5.81988 20.1521C5.88803 20.216 5.94265 20.2929 5.98048 20.3783C6.01831 20.4638 6.03859 20.5559 6.04011 20.6493C6.04162 20.7428 6.02435 20.8355 5.98931 20.9221C5.95427 21.0087 5.90218 21.0874 5.83614 21.1535C5.77009 21.2196 5.69144 21.2717 5.60485 21.3068C5.51826 21.3419 5.4255 21.3593 5.33207 21.3578C5.23865 21.3564 5.14647 21.3362 5.06101 21.2984C4.97555 21.2606 4.89856 21.2061 4.8346 21.138C4.71062 21.006 4.64288 20.8309 4.64569 20.6498C4.6485 20.4688 4.72165 20.2959 4.84966 20.1678C4.97767 20.0397 5.1505 19.9665 5.33158 19.9635C5.51266 19.9606 5.68777 20.0282 5.81988 20.1521ZM8.60906 19.4548C8.54474 19.3882 8.4678 19.3351 8.38272 19.2986C8.29765 19.262 8.20615 19.2428 8.11356 19.242C8.02098 19.2412 7.92916 19.2588 7.84346 19.2939C7.75777 19.329 7.67991 19.3807 7.61444 19.4462C7.54897 19.5117 7.49719 19.5895 7.46213 19.6752C7.42707 19.7609 7.40943 19.8527 7.41023 19.9453C7.41104 20.0378 7.43028 20.1293 7.46682 20.2144C7.50337 20.2995 7.55649 20.3764 7.62309 20.4407C7.7546 20.5677 7.93074 20.638 8.11356 20.6364C8.29639 20.6348 8.47128 20.5615 8.60057 20.4322C8.72985 20.303 8.80319 20.1281 8.80478 19.9453C8.80637 19.7625 8.73608 19.5863 8.60906 19.4548ZM3.43931 15.2714C3.50363 15.2048 3.58057 15.1517 3.66564 15.1152C3.75072 15.0786 3.84222 15.0594 3.9348 15.0586C4.02739 15.0578 4.11921 15.0754 4.2049 15.1105C4.2906 15.1455 4.36845 15.1973 4.43393 15.2628C4.4994 15.3282 4.55117 15.4061 4.58623 15.4918C4.62129 15.5775 4.63894 15.6693 4.63813 15.7619C4.63733 15.8544 4.61809 15.9459 4.58155 16.031C4.545 16.1161 4.49188 16.193 4.42528 16.2573C4.29377 16.3843 4.11763 16.4546 3.9348 16.453C3.75197 16.4514 3.57708 16.3781 3.4478 16.2488C3.31851 16.1195 3.24518 15.9447 3.24359 15.7619C3.242 15.579 3.31229 15.4029 3.43931 15.2714ZM3.72799 18.0604C3.66366 17.9938 3.58672 17.9406 3.50165 17.9041C3.41657 17.8676 3.32507 17.8483 3.23249 17.8475C3.1399 17.8467 3.04808 17.8644 2.96239 17.8994C2.87669 17.9345 2.79884 17.9862 2.73337 18.0517C2.66789 18.1172 2.61612 18.195 2.58106 18.2807C2.546 18.3664 2.52835 18.4582 2.52916 18.5508C2.52996 18.6434 2.5492 18.7349 2.58574 18.8199C2.62229 18.905 2.67541 18.9819 2.74201 19.0462C2.87352 19.1733 3.04966 19.2435 3.23249 19.2419C3.41532 19.2404 3.59021 19.167 3.71949 19.0378C3.84878 18.9085 3.92211 18.7336 3.9237 18.5508C3.92529 18.368 3.855 18.1919 3.72799 18.0604Z" fill="#D3863F"/>
</svg>
