<svg width="44" height="44" viewBox="0 0 44 44" fill="none" xmlns="http://www.w3.org/2000/svg">
<rect width="44" height="44" rx="22" fill="white"/>
<path d="M31.6 11.7778H29.2V11.3333C29.2 10.9797 29.0483 10.6406 28.7782 10.3905C28.5082 10.1405 28.1419 10 27.76 10C27.3781 10 27.0118 10.1405 26.7418 10.3905C26.4717 10.6406 26.32 10.9797 26.32 11.3333V11.7778H17.68V11.3333C17.68 10.9797 17.5283 10.6406 17.2582 10.3905C16.9882 10.1405 16.6219 10 16.24 10C15.8581 10 15.4918 10.1405 15.2218 10.3905C14.9517 10.6406 14.8 10.9797 14.8 11.3333V11.7778H12.4C11.7635 11.7778 11.153 12.0119 10.7029 12.4287C10.2529 12.8454 10 13.4106 10 14V31.7778C10 32.3671 10.2529 32.9324 10.7029 33.3491C11.153 33.7659 11.7635 34 12.4 34H31.6C32.2365 34 32.847 33.7659 33.2971 33.3491C33.7471 32.9324 34 32.3671 34 31.7778V14C34 13.4106 33.7471 12.8454 33.2971 12.4287C32.847 12.0119 32.2365 11.7778 31.6 11.7778ZM31.12 31.3333H12.88V14.4444H14.8C14.8 14.7981 14.9517 15.1372 15.2218 15.3873C15.4918 15.6373 15.8581 15.7778 16.24 15.7778C16.6219 15.7778 16.9882 15.6373 17.2582 15.3873C17.5283 15.1372 17.68 14.7981 17.68 14.4444H26.32C26.32 14.7981 26.4717 15.1372 26.7418 15.3873C27.0118 15.6373 27.3781 15.7778 27.76 15.7778C28.1419 15.7778 28.5082 15.6373 28.7782 15.3873C29.0483 15.1372 29.2 14.7981 29.2 14.4444H31.12V31.3333ZM24.88 18C23.8167 17.9992 22.7908 18.363 22 19.0211C21.3786 18.5065 20.6096 18.1693 19.7859 18.0503C18.9621 17.9313 18.1188 18.0356 17.3576 18.3505C16.5964 18.6655 15.9499 19.1776 15.4961 19.8252C15.0423 20.4727 14.8005 21.228 14.8 22C14.8 23.8889 15.9436 25.7289 18.1984 27.4689C19.1747 28.2176 20.2328 28.8696 21.3556 29.4144C21.5557 29.5071 21.7763 29.5554 22 29.5554C22.2237 29.5554 22.4443 29.5071 22.6444 29.4144C23.7672 28.8696 24.8253 28.2176 25.8016 27.4689C28.0564 25.7289 29.2 23.8889 29.2 22C29.2 20.9391 28.7449 19.9217 27.9347 19.1716C27.1245 18.4214 26.0257 18 24.88 18ZM22 26.6989C20.422 25.8256 17.68 23.9144 17.68 22C17.68 21.6464 17.8317 21.3072 18.1018 21.0572C18.3718 20.8071 18.7381 20.6667 19.12 20.6667C19.5019 20.6667 19.8682 20.8071 20.1382 21.0572C20.4083 21.3072 20.56 21.6464 20.56 22C20.56 22.3536 20.7117 22.6928 20.9818 22.9428C21.2518 23.1929 21.6181 23.3333 22 23.3333C22.3819 23.3333 22.7482 23.1929 23.0182 22.9428C23.2883 22.6928 23.44 22.3536 23.44 22C23.44 21.6464 23.5917 21.3072 23.8618 21.0572C24.1318 20.8071 24.4981 20.6667 24.88 20.6667C25.2619 20.6667 25.6282 20.8071 25.8982 21.0572C26.1683 21.3072 26.32 21.6464 26.32 22C26.32 23.9144 23.5768 25.8267 22 26.6989Z" fill="#D65683"/>
</svg>
