<svg width="24" height="24" viewBox="0 0 24 24" fill="none" xmlns="http://www.w3.org/2000/svg">
<path d="M23.7883 13.2L22.4444 14.6118L19.6892 11.7176L21.0332 10.3059C21.1714 10.1636 21.3571 10.0839 21.5506 10.0839C21.7441 10.0839 21.9299 10.1636 22.068 10.3059L23.7883 12.1129C24.0706 12.4094 24.0706 12.9035 23.7883 13.2ZM10.7518 21.0918L18.8963 12.5365L21.6514 15.4306L13.5204 24H10.7518V21.0918ZM10.7518 14.1176C4.81142 14.1176 0 16.6447 0 19.7647V22.5882H8.06384V19.92L13.4397 14.2729C12.5527 14.16 11.6522 14.1176 10.7518 14.1176ZM10.7518 0C9.32601 0 7.95863 0.594956 6.95045 1.65399C5.94228 2.71301 5.37589 4.14937 5.37589 5.64706C5.37589 7.14475 5.94228 8.5811 6.95045 9.64013C7.95863 10.6992 9.32601 11.2941 10.7518 11.2941C12.1776 11.2941 13.5449 10.6992 14.5531 9.64013C15.5613 8.5811 16.1277 7.14475 16.1277 5.64706C16.1277 4.14937 15.5613 2.71301 14.5531 1.65399C13.5449 0.594956 12.1776 0 10.7518 0Z" fill="#D65683"/>
</svg>
