<svg width="44" height="44" viewBox="0 0 44 44" fill="none" xmlns="http://www.w3.org/2000/svg">
<rect width="44" height="44" rx="22" fill="white"/>
<path fill-rule="evenodd" clip-rule="evenodd" d="M22 33.9997C22.5192 33.9997 23.7102 33.9997 25.5731 33.9997C25.6229 32.3138 25.8636 31.3868 26.2952 31.2187C30.8011 29.4634 34 25.0273 34 19.832H10C10 24.9148 13.0619 29.271 17.4141 31.1009C17.8691 31.2923 18.2089 32.2585 18.4336 33.9997C20.2514 33.9997 21.4402 33.9997 22 33.9997Z" fill="#CC7914"/>
<path d="M16.2656 24.1582C16.4814 24.8899 16.7667 25.494 17.1217 25.9705C17.4686 26.4364 17.8967 26.8684 18.4058 27.2667" stroke="white" stroke-width="4" stroke-linecap="round"/>
<path d="M22.7283 19.8483C24.9818 15.0734 26.3062 12.2586 26.7015 11.4039C27.3311 10.0427 28.6094 9.71515 29.7885 10.2323C30.9675 10.7494 31.4447 12.2297 30.9497 13.2614C30.6441 13.8985 29.606 16.0896 27.8355 19.8345" stroke="#CC7914" stroke-width="4" stroke-linecap="round"/>
</svg>
