<svg width="74" height="72" viewBox="0 0 74 72" fill="none" xmlns="http://www.w3.org/2000/svg">
<path d="M36.5 4.29296e-07C29.3799 3.44389e-07 22.4196 2.11137 16.4995 6.06709C10.5793 10.0228 5.96509 15.6453 3.24034 22.2234C0.515583 28.8015 -0.197338 36.0399 1.19173 43.0233C2.5808 50.0066 6.00947 56.4212 11.0442 61.4558C16.0788 66.4905 22.4934 69.9192 29.4767 71.3083C36.4601 72.6973 43.6985 71.9844 50.2766 69.2597C56.8547 66.5349 62.4772 61.9207 66.4329 56.0005C70.3886 50.0804 72.5 43.1201 72.5 36L61.3187 36C61.3187 40.9087 59.8631 45.7071 57.136 49.7885C54.4089 53.87 50.5327 57.051 45.9977 58.9295C41.4627 60.808 36.4725 61.2995 31.6581 60.3418C26.8438 59.3842 22.4215 57.0204 18.9505 53.5495C15.4796 50.0785 13.1158 45.6563 12.1582 40.8419C11.2005 36.0275 11.692 31.0373 13.5705 26.5023C15.449 21.9673 18.63 18.0911 22.7115 15.364C26.7929 12.6369 31.5913 11.1813 36.5 11.1813L36.5 4.29296e-07Z" fill="#CACEE8"/>
<path d="M0.500005 36C0.500006 45.5478 4.29285 54.7045 11.0442 61.4558C17.7955 68.2072 26.9522 72 36.5 72C46.0478 72 55.2045 68.2072 61.9558 61.4559C68.7072 54.7045 72.5 45.5478 72.5 36L61.3187 36C61.3187 42.5823 58.7039 48.8951 54.0495 53.5495C49.3951 58.2039 43.0823 60.8187 36.5 60.8187C29.9177 60.8187 23.6049 58.2039 18.9505 53.5495C14.2961 48.8951 11.6813 42.5823 11.6813 36L0.500005 36Z" fill="#BE4D75"/>
<g filter="url(#filter0_bii_1631_48267)">
<path d="M14.5 36C14.5 23.8497 24.3497 14 36.5 14C48.6503 14 58.5 23.8497 58.5 36C58.5 48.1503 48.6503 58 36.5 58C24.3497 58 14.5 48.1503 14.5 36Z" fill="#FDEFF4" fill-opacity="0.1"/>
<path d="M38.9 24C36.3539 24 33.9121 25.1238 32.1118 27.1242C30.3114 29.1246 29.3 31.8377 29.3 34.6667C29.3 37.4956 30.3114 40.2088 32.1118 42.2091C33.9121 44.2095 36.3539 45.3333 38.9 45.3333C41.4461 45.3333 43.8879 44.2095 45.6882 42.2091C47.4886 40.2088 48.5 37.4956 48.5 34.6667C48.5 31.8377 47.4886 29.1246 45.6882 27.1242C43.8879 25.1238 41.4461 24 38.9 24ZM28.016 29.0933C26.9189 30.0933 26.0346 31.3507 25.4267 32.7754C24.8188 34.2001 24.5023 35.7566 24.5 37.3333C24.5 40.1623 25.5114 42.8754 27.3118 44.8758C29.1121 46.8762 31.5539 48 34.1 48C34.868 48 35.624 47.8933 36.356 47.6933C34.244 47.1733 32.3 46 30.704 44.3867C29.5548 43.7036 28.5939 42.6868 27.924 41.4446C27.2541 40.2024 26.9001 38.7815 26.9 37.3333C26.9 36.9333 26.936 36.5467 26.984 36.1467C26.936 35.6533 26.9 35.16 26.9 34.6667C26.9 32.7467 27.284 30.84 28.016 29.0933Z" fill="#D65683"/>
</g>
<defs>
<filter id="filter0_bii_1631_48267" x="-10.8333" y="-11.3333" width="94.6667" height="94.6667" filterUnits="userSpaceOnUse" color-interpolation-filters="sRGB">
<feFlood flood-opacity="0" result="BackgroundImageFix"/>
<feGaussianBlur in="BackgroundImageFix" stdDeviation="12.6667"/>
<feComposite in2="SourceAlpha" operator="in" result="effect1_backgroundBlur_1631_48267"/>
<feBlend mode="normal" in="SourceGraphic" in2="effect1_backgroundBlur_1631_48267" result="shape"/>
<feColorMatrix in="SourceAlpha" type="matrix" values="0 0 0 0 0 0 0 0 0 0 0 0 0 0 0 0 0 0 127 0" result="hardAlpha"/>
<feOffset dx="-12.6667" dy="12.6667"/>
<feGaussianBlur stdDeviation="6.33333"/>
<feComposite in2="hardAlpha" operator="arithmetic" k2="-1" k3="1"/>
<feColorMatrix type="matrix" values="0 0 0 0 1 0 0 0 0 1 0 0 0 0 1 0 0 0 0.1 0"/>
<feBlend mode="normal" in2="shape" result="effect2_innerShadow_1631_48267"/>
<feColorMatrix in="SourceAlpha" type="matrix" values="0 0 0 0 0 0 0 0 0 0 0 0 0 0 0 0 0 0 127 0" result="hardAlpha"/>
<feOffset dx="12.6667" dy="-12.6667"/>
<feGaussianBlur stdDeviation="6.33333"/>
<feComposite in2="hardAlpha" operator="arithmetic" k2="-1" k3="1"/>
<feColorMatrix type="matrix" values="0 0 0 0 0.646745 0 0 0 0 0.646745 0 0 0 0 0.646745 0 0 0 0.1 0"/>
<feBlend mode="normal" in2="effect2_innerShadow_1631_48267" result="effect3_innerShadow_1631_48267"/>
</filter>
</defs>
</svg>
