<svg width="24" height="24" viewBox="0 0 24 24" fill="none" xmlns="http://www.w3.org/2000/svg">
    <path d="M2.20937 11.1068L11.1068 2.20937C12.5248 0.794565 14.446 0 16.4491 0C18.4522 0 20.3734 0.794565 21.7914 2.20937C24.7362 5.15422 24.7362 9.93645 21.7914 12.8939L12.8939 21.7914C9.93645 24.7362 5.15422 24.7362 2.20937 21.7914C0.794565 20.3734 0 18.4522 0 16.4491C0 14.446 0.794565 12.5248 2.20937 11.1068ZM3.99641 12.8939C3.36917 13.5162 2.91772 14.2934 2.68785 15.1465C2.45799 15.9997 2.4579 16.8984 2.68759 17.7516L10.2259 10.2259L15.5619 15.5619L20.0043 11.1068C20.4735 10.6412 20.8458 10.0874 21.0999 9.47722C21.3541 8.86704 21.4849 8.2126 21.4849 7.55163C21.4849 6.89065 21.3541 6.23621 21.0999 5.62604C20.8458 5.01586 20.4735 4.46201 20.0043 3.99641C19.5387 3.52726 18.9849 3.15489 18.3747 2.90078C17.7645 2.64667 17.1101 2.51585 16.4491 2.51585C15.7881 2.51585 15.1337 2.64667 14.5235 2.90078C13.9133 3.15489 13.3595 3.52726 12.8939 3.99641L3.99641 12.8939Z" fill="#4A56AC"/>
</svg>