<svg width="24" height="24" viewBox="0 0 24 24" fill="none" xmlns="http://www.w3.org/2000/svg">
    <path fill-rule="evenodd" clip-rule="evenodd" d="M8.57143 0C7.88944 0 7.23539 0.189642 6.75315 0.527208C6.27092 0.864773 6 1.32261 6 1.8H2.57143C1.88944 1.8 1.23539 1.98964 0.753154 2.32721C0.270917 2.66477 0 3.12261 0 3.6V22.2C0 22.6774 0.270917 23.1352 0.753154 23.4728C1.23539 23.8104 1.88944 24 2.57143 24H21.4286C22.1106 24 22.7646 23.8104 23.2468 23.4728C23.7291 23.1352 24 22.6774 24 22.2V3.6C24 3.12261 23.7291 2.66477 23.2468 2.32721C22.7646 1.98964 22.1106 1.8 21.4286 1.8H18C18 1.32261 17.7291 0.864773 17.2468 0.527208C16.7646 0.189642 16.1106 0 15.4286 0H8.57143ZM7.71429 1.8C7.71429 1.64087 7.80459 1.48826 7.96534 1.37574C8.12608 1.26321 8.3441 1.2 8.57143 1.2H15.4286C15.6559 1.2 15.8739 1.26321 16.0347 1.37574C16.1954 1.48826 16.2857 1.64087 16.2857 1.8V3C16.2857 3.15913 16.1954 3.31174 16.0347 3.42426C15.8739 3.53679 15.6559 3.6 15.4286 3.6H8.57143C8.3441 3.6 8.12608 3.53679 7.96534 3.42426C7.80459 3.31174 7.71429 3.15913 7.71429 3V1.8ZM5.14286 9.6C4.91553 9.6 4.69751 9.66321 4.53677 9.77574C4.37602 9.88826 4.28571 10.0409 4.28571 10.2C4.28571 10.3591 4.37602 10.5117 4.53677 10.6243C4.69751 10.7368 4.91553 10.8 5.14286 10.8H11.1429C11.3702 10.8 11.5882 10.7368 11.7489 10.6243C11.9097 10.5117 12 10.3591 12 10.2C12 10.0409 11.9097 9.88826 11.7489 9.77574C11.5882 9.66321 11.3702 9.6 11.1429 9.6H5.14286ZM4.28571 7.2C4.28571 7.04087 4.37602 6.88826 4.53677 6.77574C4.69751 6.66321 4.91553 6.6 5.14286 6.6H18.4286C18.6559 6.6 18.8739 6.66321 19.0347 6.77574C19.1954 6.88826 19.2857 7.04087 19.2857 7.2C19.2857 7.35913 19.1954 7.51174 19.0347 7.62426C18.8739 7.73679 18.6559 7.8 18.4286 7.8H5.14286C4.91553 7.8 4.69751 7.73679 4.53677 7.62426C4.37602 7.51174 4.28571 7.35913 4.28571 7.2ZM4.28571 14.4C4.28571 14.2409 4.37602 14.0883 4.53677 13.9757C4.69751 13.8632 4.91553 13.8 5.14286 13.8H8.57143C8.79876 13.8 9.01678 13.8632 9.17752 13.9757C9.33827 14.0883 9.42857 14.2409 9.42857 14.4V16.8C9.42857 16.9591 9.33827 17.1117 9.17752 17.2243C9.01678 17.3368 8.79876 17.4 8.57143 17.4H5.14286C4.91553 17.4 4.69751 17.3368 4.53677 17.2243C4.37602 17.1117 4.28571 16.9591 4.28571 16.8V14.4ZM15.4286 16.8C16.1106 16.8 16.7646 16.6104 17.2468 16.2728C17.7291 15.9352 18 15.4774 18 15C18 14.5226 17.7291 14.0648 17.2468 13.7272C16.7646 13.3896 16.1106 13.2 15.4286 13.2C14.7466 13.2 14.0925 13.3896 13.6103 13.7272C13.1281 14.0648 12.8571 14.5226 12.8571 15C12.8571 15.4774 13.1281 15.9352 13.6103 16.2728C14.0925 16.6104 14.7466 16.8 15.4286 16.8ZM10.2857 19.5C10.2857 18.2304 13.7117 17.5908 15.4286 17.5908C17.1454 17.5908 20.5714 18.2304 20.5714 19.5V21H10.2857V19.5Z" fill="#4D8762"/>
</svg>