<svg width="24" height="24" viewBox="0 0 24 24" fill="none" xmlns="http://www.w3.org/2000/svg">
<path d="M14.4 0C11.8539 0 9.41212 1.12381 7.61177 3.12419C5.81143 5.12458 4.8 7.83769 4.8 10.6667C4.8 13.4956 5.81143 16.2088 7.61177 18.2091C9.41212 20.2095 11.8539 21.3333 14.4 21.3333C16.9461 21.3333 19.3879 20.2095 21.1882 18.2091C22.9886 16.2088 24 13.4956 24 10.6667C24 7.83769 22.9886 5.12458 21.1882 3.12419C19.3879 1.12381 16.9461 0 14.4 0ZM3.516 5.09333C2.41886 6.09328 1.5346 7.35073 0.926691 8.77541C0.318782 10.2001 0.00231102 11.7566 0 13.3333C0 16.1623 1.01143 18.8754 2.81178 20.8758C4.61212 22.8762 7.05392 24 9.6 24C10.368 24 11.124 23.8933 11.856 23.6933C9.744 23.1733 7.8 22 6.204 20.3867C5.05476 19.7036 4.09393 18.6868 3.42399 17.4446C2.75406 16.2024 2.40014 14.7815 2.4 13.3333C2.4 12.9333 2.436 12.5467 2.484 12.1467C2.436 11.6533 2.4 11.16 2.4 10.6667C2.4 8.74667 2.784 6.84 3.516 5.09333Z" fill="#D65683"/>
</svg>
