<svg width="24" height="29" viewBox="0 0 24 29" fill="none" xmlns="http://www.w3.org/2000/svg">
<rect width="24" height="29" fill="#E8EBED"/>
<g id="icons">
<path d="M-175 -332C-175 -333.105 -174.105 -334 -173 -334H1527C1528.1 -334 1529 -333.105 1529 -332V1024C1529 1025.1 1528.1 1026 1527 1026H-173C-174.105 1026 -175 1025.1 -175 1024V-332Z" fill="white"/>
<path d="M-173 -333H1527V-335H-173V-333ZM1528 -332V1024H1530V-332H1528ZM1527 1025H-173V1027H1527V1025ZM-174 1024V-332H-176V1024H-174ZM-173 1025C-173.552 1025 -174 1024.55 -174 1024H-176C-176 1025.66 -174.657 1027 -173 1027V1025ZM1528 1024C1528 1024.55 1527.55 1025 1527 1025V1027C1528.66 1027 1530 1025.66 1530 1024H1528ZM1527 -333C1527.55 -333 1528 -332.552 1528 -332H1530C1530 -333.657 1528.66 -335 1527 -335V-333ZM-173 -335C-174.657 -335 -176 -333.657 -176 -332H-174C-174 -332.552 -173.552 -333 -173 -333V-335Z" fill="black" fill-opacity="0.1"/>
<g id="icons_2">
<rect x="-19.5" y="-283.5" width="63" height="1295" rx="4.5" stroke="#9747FF" stroke-dasharray="10 5"/>
<g id="Property 1=icon, Property 2=receta">
<path id="Vector" fill-rule="evenodd" clip-rule="evenodd" d="M8.57143 0C7.88944 0 7.23539 0.229151 6.75315 0.637043C6.27092 1.04493 6 1.59815 6 2.175H2.57143C1.88944 2.175 1.23539 2.40415 0.753154 2.81204C0.270917 3.21993 0 3.77315 0 4.35V26.825C0 27.4018 0.270917 27.9551 0.753154 28.363C1.23539 28.7708 1.88944 29 2.57143 29H21.4286C22.1106 29 22.7646 28.7708 23.2468 28.363C23.7291 27.9551 24 27.4018 24 26.825V4.35C24 3.77315 23.7291 3.21993 23.2468 2.81204C22.7646 2.40415 22.1106 2.175 21.4286 2.175H18C18 1.59815 17.7291 1.04493 17.2468 0.637043C16.7646 0.229151 16.1106 0 15.4286 0H8.57143ZM7.71429 2.175C7.71429 1.98272 7.80459 1.79831 7.96534 1.66235C8.12608 1.52638 8.3441 1.45 8.57143 1.45H15.4286C15.6559 1.45 15.8739 1.52638 16.0347 1.66235C16.1954 1.79831 16.2857 1.98272 16.2857 2.175V3.625C16.2857 3.81728 16.1954 4.00169 16.0347 4.13765C15.8739 4.27362 15.6559 4.35 15.4286 4.35H8.57143C8.3441 4.35 8.12608 4.27362 7.96534 4.13765C7.80459 4.00169 7.71429 3.81728 7.71429 3.625V2.175ZM5.14286 11.6C4.91553 11.6 4.69751 11.6764 4.53677 11.8123C4.37602 11.9483 4.28571 12.1327 4.28571 12.325C4.28571 12.5173 4.37602 12.7017 4.53677 12.8377C4.69751 12.9736 4.91553 13.05 5.14286 13.05H11.1429C11.3702 13.05 11.5882 12.9736 11.7489 12.8377C11.9097 12.7017 12 12.5173 12 12.325C12 12.1327 11.9097 11.9483 11.7489 11.8123C11.5882 11.6764 11.3702 11.6 11.1429 11.6H5.14286ZM4.28571 8.7C4.28571 8.50772 4.37602 8.32331 4.53677 8.18735C4.69751 8.05138 4.91553 7.975 5.14286 7.975H18.4286C18.6559 7.975 18.8739 8.05138 19.0347 8.18735C19.1954 8.32331 19.2857 8.50772 19.2857 8.7C19.2857 8.89228 19.1954 9.07669 19.0347 9.21265C18.8739 9.34862 18.6559 9.425 18.4286 9.425H5.14286C4.91553 9.425 4.69751 9.34862 4.53677 9.21265C4.37602 9.07669 4.28571 8.89228 4.28571 8.7ZM4.28571 17.4C4.28571 17.2077 4.37602 17.0233 4.53677 16.8873C4.69751 16.7514 4.91553 16.675 5.14286 16.675H8.57143C8.79876 16.675 9.01678 16.7514 9.17752 16.8873C9.33827 17.0233 9.42857 17.2077 9.42857 17.4V20.3C9.42857 20.4923 9.33827 20.6767 9.17752 20.8127C9.01678 20.9486 8.79876 21.025 8.57143 21.025H5.14286C4.91553 21.025 4.69751 20.9486 4.53677 20.8127C4.37602 20.6767 4.28571 20.4923 4.28571 20.3V17.4ZM15.4286 20.3C16.1106 20.3 16.7646 20.0709 17.2468 19.663C17.7291 19.2551 18 18.7018 18 18.125C18 17.5482 17.7291 16.9949 17.2468 16.587C16.7646 16.1792 16.1106 15.95 15.4286 15.95C14.7466 15.95 14.0925 16.1792 13.6103 16.587C13.1281 16.9949 12.8571 17.5482 12.8571 18.125C12.8571 18.7018 13.1281 19.2551 13.6103 19.663C14.0925 20.0709 14.7466 20.3 15.4286 20.3ZM10.2857 23.5625C10.2857 22.0284 13.7117 21.2556 15.4286 21.2556C17.1454 21.2556 20.5714 22.0284 20.5714 23.5625V25.375H10.2857V23.5625Z" fill="#D65683"/>
</g>
</g>
</g>
</svg>
