<svg width="44" height="44" viewBox="0 0 44 44" fill="none" xmlns="http://www.w3.org/2000/svg">
<rect width="44" height="44" rx="22" fill="white"/>
<path d="M27.2103 15.3957C28.1645 15.3957 29.0797 15.1115 29.7544 14.6055C30.4292 14.0996 30.8083 13.4134 30.8083 12.6978C30.8083 11.9823 30.4292 11.2961 29.7544 10.7902C29.0797 10.2842 28.1645 10 27.2103 10C26.2561 10 25.3409 10.2842 24.6662 10.7902C23.9914 11.2961 23.6124 11.9823 23.6124 12.6978C23.6124 13.4134 23.9914 14.0996 24.6662 14.6055C25.3409 15.1115 26.2561 15.3957 27.2103 15.3957ZM19.9824 17.9628C18.9854 18.1487 18.305 18.4281 17.7557 18.7746C16.9322 19.295 16.267 20.0456 15.3683 21.2254C15.1578 21.5016 14.8097 21.7037 14.4005 21.7873C13.9913 21.871 13.5545 21.8293 13.1863 21.6715C12.8181 21.5137 12.5485 21.2526 12.437 20.9458C12.3254 20.639 12.381 20.3115 12.5915 20.0354C13.4861 18.8621 14.3904 17.7644 15.6961 16.9407C17.0585 16.0797 18.7264 15.5929 20.9755 15.4053C21.9157 15.3273 22.9503 15.3429 23.9202 15.6673C24.938 16.0084 25.6816 16.6193 26.1885 17.4359C26.8713 18.5348 27.379 19.1889 27.7852 19.5684C27.9811 19.75 28.1178 19.8346 28.1954 19.8723C28.2569 19.9023 28.2833 19.9047 28.2929 19.9059C28.3625 19.9119 28.5887 19.9059 29.2507 19.6859C29.5394 19.5899 29.8544 19.4748 30.2398 19.334L30.3317 19.3004C30.8031 19.126 31.2786 18.9581 31.7581 18.7968C32.1453 18.6693 32.584 18.6621 32.9783 18.7765C33.3725 18.891 33.6903 19.1179 33.8621 19.4076C34.0339 19.6973 34.0456 20.0262 33.8948 20.3224C33.744 20.6185 33.4429 20.8579 33.0574 20.988C32.613 21.1375 32.1724 21.2932 31.7357 21.4551L31.631 21.4934C31.2624 21.6283 30.8914 21.7644 30.5436 21.8795C29.824 22.1181 28.9045 22.3771 27.9075 22.2866C26.8553 22.1907 26.0446 21.7452 25.377 21.1475L23.1918 24.3088L26.2141 27.2572C26.394 27.4335 26.5051 27.6433 26.5363 27.8639L27.2015 32.6577C27.2269 32.8157 27.21 32.9758 27.152 33.1288C27.094 33.2818 26.996 33.4247 26.8636 33.549C26.7313 33.6733 26.5672 33.7767 26.3811 33.853C26.195 33.9293 25.9904 33.9771 25.7794 33.9936C25.5684 34.01 25.3551 33.9948 25.152 33.9489C24.9489 33.9029 24.76 33.8272 24.5963 33.7259C24.4327 33.6247 24.2975 33.5001 24.1987 33.3593C24.0999 33.2185 24.0395 33.0644 24.0209 32.9059L23.4021 28.4497L21.5663 26.6583L21.5503 26.6805L21.4832 26.5774L18.0915 23.268C17.9248 23.1054 17.8165 22.9133 17.777 22.7103C17.7376 22.5073 17.7682 22.3001 17.866 22.1085L19.9824 17.9628Z" fill="#4D8762"/>
<path d="M17.5612 24.9922L16.3843 27.3663L11.7469 27.0905C11.5361 27.0758 11.3235 27.0927 11.1214 27.1401C10.9193 27.1876 10.7318 27.2646 10.5698 27.3668C10.4077 27.469 10.2744 27.5943 10.1774 27.7355C10.0805 27.8766 10.0219 28.0308 10.0051 28.1891C9.98823 28.3474 10.0135 28.5066 10.0794 28.6575C10.1452 28.8083 10.2504 28.9479 10.3888 29.0681C10.5272 29.1883 10.6961 29.2866 10.8855 29.3575C11.075 29.4283 11.2814 29.4702 11.4927 29.4808L17.3358 29.8285C17.6825 29.8492 18.0288 29.7846 18.3222 29.6443C18.6155 29.5041 18.8399 29.296 18.9612 29.0515L19.8607 27.2362L17.5612 24.9922Z" fill="#4D8762"/>
</svg>
